<svg height="512pt" viewBox="-4 0 511 512" width="512pt" xmlns="http://www.w3.org/2000/svg"><path d="m31.101562 121.601562c-20.875 36.148438-15.21875 83.160157 10.714844 130.132813-25.933594 46.972656-31.589844 93.980469-10.714844 130.132813 20.769532 35.976562 63.980469 54.558593 117.269532 55.753906 27.777344 45.941406 65.996094 74.378906 108.128906 74.378906s80.351562-28.4375 108.128906-74.378906c53.285156-1.195313 96.503906-19.785156 117.269532-55.753906 20.871093-36.152344 15.21875-83.160157-10.714844-130.132813 25.933594-46.972656 31.585937-93.984375 10.714844-130.132813-21.472657-37.199218-66.941407-55.828124-122.738282-55.832031-27.226562-40.851562-63.226562-65.769531-102.660156-65.769531s-75.433594 24.917969-102.65625 65.769531c-55.800781.003907-101.269531 18.632813-122.742188 55.832031zm14.78125 251.730469c-16.78125-29.070312-13.34375-66.570312 5.867188-105.144531 16.515625 24.777344 36.246094 47.253906 58.675781 66.839844 5.585938 29.757812 15.226563 58.613281 28.648438 85.75-42.640625-2.792969-76.515625-18.554688-93.191407-47.445313zm60.195313-65.433593c-17.289063-16.820313-32.472656-35.679688-45.210937-56.164063 13.085937-21.023437 28.734374-40.335937 46.582031-57.5-5.566407 37.652344-6.027344 75.886719-1.371094 113.664063zm13.886719-51.898438c-.046875-26.988281 2.621094-53.910156 7.96875-80.363281 38.199218-31.949219 81.707031-56.945313 128.546875-73.851563 46.855469 16.894532 90.382812 41.890625 128.585937 73.851563 5.347656 26.453125 8.015625 53.375 7.96875 80.363281.027344 23.511719-1.984375 46.980469-6.015625 70.144531-19.375 16.472657-40.210937 31.144531-62.253906 43.832031-21.757813 12.597657-44.609375 23.210938-68.273437 31.710938-23.660157-8.5-46.503907-19.113281-68.257813-31.710938-22.042969-12.6875-42.878906-27.359374-62.253906-43.832031-4.03125-23.164062-6.042969-46.632812-6.015625-70.144531zm11.691406 96.574219c15.28125 11.785156 31.332031 22.535156 48.042969 32.183593 16.453125 9.472657 33.511719 17.851563 51.0625 25.089844-23.695313 6.773438-48.140625 10.578125-72.777344 11.328125-11.613281-21.675781-20.460937-44.722656-26.328125-68.601562zm124.84375 142.359375c-33.914062 0-64.953125-21.800782-88.851562-57.746094 30.28125-1.875 60.167968-7.835938 88.851562-17.726562 28.683594 9.890624 58.570312 15.855468 88.851562 17.726562-23.898437 35.949219-54.9375 57.746094-88.851562 57.746094zm98.507812-73.75c-24.636718-.75-49.085937-4.558594-72.785156-11.332032 17.558594-7.238281 34.621094-15.621093 51.078125-25.09375 16.710938-9.648437 32.761719-20.398437 48.042969-32.183593-5.871094 23.882812-14.71875 46.933593-26.335938 68.609375zm112.109376-47.851563c-16.679688 28.894531-50.554688 44.660157-93.199219 47.457031 13.429687-27.144531 23.070312-56 28.65625-85.761718 22.429687-19.585938 42.160156-42.0625 58.675781-66.839844 19.210938 38.574219 22.648438 76.074219 5.867188 105.144531zm-61.566407-179.097656c17.847657 17.164063 33.496094 36.476563 46.582031 57.5-12.738281 20.484375-27.921874 39.34375-45.210937 56.164063 2.125-17.21875 3.1875-34.550782 3.179687-51.898438.007813-20.671875-1.511718-41.320312-4.550781-61.765625zm61.566407-64.101563c16.78125 29.070313 13.34375 66.574219-5.867188 105.148438-17.066406-25.578125-37.539062-48.710938-60.851562-68.757812-6.34375-29.355469-16.820313-57.667969-31.117188-84.082032 44.816406 1.929688 80.558594 17.757813 97.835938 47.691406zm-88.707032 18.488282c-29.546875-22.355469-61.828125-40.851563-96.058594-55.039063 22.117188-6.28125 44.875-10.019531 67.839844-11.140625 12.246094 20.738282 21.734375 42.984375 28.21875 66.179688zm-121.910156-131.554688c31.210938 0 59.988281 18.464844 83.015625 49.425782-28.289063 2.324218-56.175781 8.167968-83.015625 17.394531-26.839844-9.226563-54.726562-15.074219-83.015625-17.398438 23.027344-30.957031 51.804687-49.421875 83.015625-49.421875zm-93.78125 65.53125c22.941406 1.085938 45.6875 4.789063 67.789062 11.046875-34.175781 14.179688-66.410156 32.652344-95.914062 54.976563 6.46875-23.132813 15.925781-45.328125 28.125-66.023438zm-18.976562-.191406c-14.308594 26.425781-24.792969 54.746094-31.136719 84.117188-23.316407 20.046874-43.789063 43.179687-60.851563 68.757812-19.210937-38.574219-22.652344-76.078125-5.867187-105.148438 17.28125-29.941406 53.011719-45.804687 97.851562-47.726562zm0 0"/><path d="m.5 42.667969c0 18.851562 15.28125 34.132812 34.132812 34.132812 18.851563 0 34.132813-15.28125 34.132813-34.132812 0-18.851563-15.28125-34.132813-34.132813-34.132813-18.84375.019532-34.113281 15.289063-34.132812 34.132813zm34.132812-17.066407c9.425782 0 17.066407 7.640626 17.066407 17.066407s-7.640625 17.066406-17.066407 17.066406c-9.425781 0-17.066406-7.640625-17.066406-17.066406.007813-9.421875 7.644532-17.058594 17.066406-17.066407zm0 0"/><path d="m410.101562 477.867188c0 18.851562 15.28125 34.132812 34.132813 34.132812s34.132813-15.28125 34.132813-34.132812c0-18.851563-15.28125-34.132813-34.132813-34.132813-18.84375.019531-34.113281 15.289063-34.132813 34.132813zm51.199219 0c0 9.425781-7.640625 17.066406-17.066406 17.066406s-17.066406-7.640625-17.066406-17.066406c0-9.425782 7.640625-17.066407 17.066406-17.066407 9.421875.007813 17.054687 7.644531 17.066406 17.066407zm0 0"/><path d="m469.832031 25.601562c4.714844 0 8.535157-3.820312 8.535157-8.535156v-8.53125c0-4.714844-3.820313-8.535156-8.535157-8.535156-4.710937 0-8.53125 3.820312-8.53125 8.535156v8.53125c0 4.714844 3.820313 8.535156 8.53125 8.535156zm0 0"/><path d="m461.300781 59.734375c0 4.710937 3.820313 8.53125 8.53125 8.53125 4.714844 0 8.535157-3.820313 8.535157-8.53125v-8.535156c0-4.710938-3.820313-8.53125-8.535157-8.53125-4.710937 0-8.53125 3.820312-8.53125 8.53125zm0 0"/><path d="m452.765625 25.601562h-8.53125c-4.714844 0-8.535156 3.820313-8.535156 8.53125 0 4.714844 3.820312 8.535157 8.535156 8.535157h8.53125c4.714844 0 8.535156-3.820313 8.535156-8.535157 0-4.710937-3.820312-8.53125-8.535156-8.53125zm0 0"/><path d="m495.433594 25.601562h-8.535156c-4.710938 0-8.53125 3.820313-8.53125 8.53125 0 4.714844 3.820312 8.535157 8.53125 8.535157h8.535156c4.710937 0 8.53125-3.820313 8.53125-8.535157 0-4.710937-3.820313-8.53125-8.53125-8.53125zm0 0"/><path d="m26.101562 452.265625v8.535156c0 4.710938 3.820313 8.53125 8.53125 8.53125 4.714844 0 8.535157-3.820312 8.535157-8.53125v-8.535156c0-4.710937-3.820313-8.53125-8.535157-8.53125-4.710937 0-8.53125 3.820313-8.53125 8.53125zm0 0"/><path d="m34.632812 486.398438c-4.710937 0-8.53125 3.820312-8.53125 8.535156v8.53125c0 4.714844 3.820313 8.535156 8.53125 8.535156 4.714844 0 8.535157-3.820312 8.535157-8.535156v-8.53125c0-4.714844-3.820313-8.535156-8.535157-8.535156zm0 0"/><path d="m17.566406 469.332031h-8.53125c-4.714844 0-8.535156 3.820313-8.535156 8.535157 0 4.710937 3.820312 8.53125 8.535156 8.53125h8.53125c4.714844 0 8.535156-3.820313 8.535156-8.53125 0-4.714844-3.820312-8.535157-8.535156-8.535157zm0 0"/><path d="m60.234375 486.398438c4.710937 0 8.53125-3.820313 8.53125-8.53125 0-4.714844-3.820313-8.535157-8.53125-8.535157h-8.535156c-4.710938 0-8.53125 3.820313-8.53125 8.535157 0 4.710937 3.820312 8.53125 8.53125 8.53125zm0 0"/><path d="m340.894531 333.769531c12.40625-8.03125 18.132813-23.214843 14.117188-37.441406-6.5-22.796875-20.6875-42.640625-40.160157-56.160156 17.394532-28.644531 11.429688-65.675781-14.082031-87.40625s-63.023437-21.730469-88.535156 0c-25.507813 21.730469-31.476563 58.761719-14.082031 87.40625-19.46875 13.519531-33.65625 33.363281-40.15625 56.160156-4.019532 14.226563 1.703125 29.40625 14.109375 37.441406 51.46875 32.839844 117.3125 32.839844 168.78125 0zm-84.394531-180.167969c28.265625.03125 51.167969 22.933594 51.199219 51.199219.078125 11.828125-4.015625 23.304688-11.5625 32.410157-9.699219 11.925781-24.265625 18.832031-39.636719 18.789062-1.917969 0-3.835938-.105469-5.742188-.316406-13.300781-1.46875-25.488281-8.117188-33.925781-18.507813-7.527343-9.101562-11.613281-20.5625-11.53125-32.375.03125-28.265625 22.933594-51.167969 51.199219-51.199219zm-82.074219 147.34375c5.5-19.332031 17.640625-36.105468 34.289063-47.371093l.050781.046875c.117187.117187.253906.214844.371094.332031 1.59375 1.542969 3.253906 3 4.980469 4.367187.628906.5 1.292968.941407 1.933593 1.414063 1.261719.933594 2.53125 1.847656 3.851563 2.6875.78125.496094 1.582031.941406 2.378906 1.40625 1.25.722656 2.507812 1.421875 3.796875 2.066406.863281.425781 1.734375.824219 2.613281 1.214844 1.292969.578125 2.601563 1.113281 3.921875 1.605469.902344.335937 1.804688.664062 2.722657.960937 1.378906.449219 2.773437.828125 4.179687 1.1875.898437.230469 1.785156.476563 2.691406.667969 1.5625.332031 3.148438.570312 4.738281.792969.777344.109375 1.535157.257812 2.324219.34375 4.796875.53125 9.640625.53125 14.441407 0 .792968-.085938 1.566406-.234375 2.351562-.34375 1.582031-.222657 3.15625-.460938 4.707031-.789063.917969-.195312 1.8125-.441406 2.71875-.671875 1.394531-.355469 2.777344-.734375 4.140625-1.175781.941406-.304688 1.855469-.640625 2.777344-.980469 1.296875-.488281 2.582031-1.007812 3.84375-1.570312.910156-.40625 1.808594-.816407 2.699219-1.261719 1.242187-.617188 2.453125-1.289062 3.65625-1.984375.847656-.492187 1.699219-.96875 2.523437-1.492187 1.238282-.789063 2.425782-1.648438 3.609375-2.515626.722657-.53125 1.464844-1.023437 2.167969-1.585937 1.53125-1.214844 2.992188-2.519531 4.421875-3.875.296875-.28125.621094-.527344.914063-.816406l.035156-.027344c16.644531 11.265625 28.789062 28.039063 34.289062 47.371094 1.910156 7.046875-.925781 14.527343-7.023437 18.539062-45.796875 29.128907-104.308594 29.128907-150.101563 0-6.097656-4.015625-8.929687-11.496093-7.015625-18.542969zm0 0"/></svg>